<svg xmlns="http://www.w3.org/2000/svg" xmlns:xlink="http://www.w3.org/1999/xlink" width="140" height="80" viewBox="0 0 140 80">
    <defs>
        <path id="a" d="M0 0h140v80H0z"/>
        <path id="b" d="M16.199.246H.017V28H32.38V.246H16.2z"/>
    </defs>
    <g fill="none" fill-rule="evenodd">
        <g>
            <use fill="#FBFCFD" xlink:href="#a"/>
            <path stroke="#E7ECF1" d="M.5.5h139v79H.5z"/>
        </g>
        <g transform="translate(54 26)">
            <mask id="c" fill="#fff">
                <use xlink:href="#b"/>
            </mask>
            <path fill="#C2CAD8" d="M20.238 19.327c0 .313-.115.585-.344.813-.228.228-.5.343-.813.343h-5.782c-.314 0-.585-.115-.813-.343-.23-.228-.343-.5-.343-.813v-2.892H0v8.675c0 .794.283 1.474.849 2.04.566.567 1.247.85 2.042.85H29.49c.795 0 1.476-.283 2.042-.85.567-.566.85-1.246.85-2.04v-8.675H20.237v2.892z" mask="url(#c)"/>
            <path fill="#C2CAD8" d="M13.878 18.749h4.625v-2.314h-4.625zM31.531 5.72a2.785 2.785 0 0 0-2.042-.848h-6.36V1.981c0-.482-.169-.892-.507-1.23a1.673 1.673 0 0 0-1.228-.505H10.986c-.482 0-.891.169-1.229.506a1.674 1.674 0 0 0-.506 1.229v2.891h-6.36c-.795 0-1.476.282-2.042.849A2.783 2.783 0 0 0 0 7.762v6.939h32.38V7.762c0-.795-.282-1.475-.849-2.041zm-19.966-.848h9.25V2.559h-9.25v2.313z" mask="url(#c)"/>
        </g>
    </g>
</svg>
