<svg width="74" height="74" viewBox="0 0 74 74" xmlns="http://www.w3.org/2000/svg" xmlns:xlink="http://www.w3.org/1999/xlink"><title>A34FAF50-2498-4171-9599-9782EBEF7284</title><defs><path id="a" d="M12.73.246H.016V28h25.425V.246H12.729z"/></defs><g transform="translate(1 1)" fill="none" fill-rule="evenodd"><circle stroke="#E7ECF1" fill="#FBFCFD" cx="36" cy="36" r="36"/><g transform="translate(23 22)"><mask id="b" fill="#fff"><use xlink:href="#a"/></mask><path d="M12.721 14.124c1.916 0 3.55-.678 4.906-2.034 1.356-1.355 2.032-2.99 2.032-4.906 0-1.914-.676-3.55-2.032-4.905C16.272.924 14.637.246 12.72.246c-1.915 0-3.55.678-4.906 2.033-1.355 1.355-2.032 2.99-2.032 4.905 0 1.916.677 3.551 2.032 4.906 1.355 1.356 2.99 2.034 4.906 2.034z" fill="#C2CAD8" mask="url(#b)"/><path d="M25.378 21.45a18.356 18.356 0 0 0-.253-1.97 15.123 15.123 0 0 0-.479-1.96 9.245 9.245 0 0 0-.777-1.761 6.355 6.355 0 0 0-1.12-1.464 4.724 4.724 0 0 0-1.546-.967 5.437 5.437 0 0 0-2.014-.361c-.108 0-.361.129-.759.388-.397.26-.845.549-1.346.867-.5.32-1.15.609-1.951.868a7.804 7.804 0 0 1-2.413.388c-.807 0-1.61-.13-2.412-.388-.801-.26-1.452-.548-1.951-.868-.5-.318-.949-.607-1.346-.867-.398-.259-.651-.388-.76-.388-.734 0-1.406.12-2.014.36a4.711 4.711 0 0 0-1.545.968 6.347 6.347 0 0 0-1.12 1.464 9.23 9.23 0 0 0-.777 1.76 15.353 15.353 0 0 0-.479 1.962 18.356 18.356 0 0 0-.253 1.97A26.878 26.878 0 0 0 0 23.32c0 1.445.44 2.586 1.319 3.424.88.836 2.048 1.255 3.505 1.255h15.794c1.457 0 2.625-.419 3.505-1.255.88-.838 1.319-1.98 1.319-3.424 0-.64-.022-1.263-.064-1.87z" fill="#C2CAD8" mask="url(#b)"/></g></g></svg>